<svg width="241" height="60" viewBox="0 0 241 60" fill="none" xmlns="http://www.w3.org/2000/svg">
<path d="M31.3957 3H32.4917C32.9731 3.09306 33.298 3.11181 33.8007 3.24643C35.4651 3.69067 36.9101 4.72995 37.8626 6.16831C38.208 6.68256 38.5917 7.36795 38.913 7.90854L40.7415 10.9863L45.2647 18.5932C46.0725 19.9514 46.8889 21.3664 47.7174 22.7081C48.0024 20.2247 48.1003 17.7234 48.0102 15.2253C47.9598 14.0981 47.8943 12.9495 47.5934 11.8585C47.5048 11.5371 47.4427 11.1773 47.4138 10.8458C47.2021 8.56796 48.1393 6.33461 49.9113 4.89291C51.3287 3.74575 53.1451 3.21491 54.9552 3.41882C56.7479 3.62072 58.3875 4.52751 59.5139 5.94006C60.1505 6.73598 60.5889 7.64701 60.8282 8.64044C60.9054 8.95995 60.9285 9.33607 61 9.63646V10.7792C60.9613 10.9359 60.9288 11.2121 60.8985 11.3837C60.8318 11.7807 60.7291 12.1709 60.5922 12.5494C59.9676 14.257 58.6896 15.6445 57.0413 16.4046C55.3057 17.2065 53.4832 17.2136 51.7109 16.5591C52.0908 19.8425 52.0716 23.16 51.6542 26.4388C51.4422 28.0424 51.1389 29.6081 50.5596 31.1163C50.414 31.4948 50.3191 31.9136 50.1588 32.3177C49.6846 33.5026 48.9006 34.5374 47.8889 35.313C46.3842 36.4707 44.4797 36.9769 42.6003 36.719C40.5784 36.437 38.995 35.4235 37.7731 33.8045C38.3977 38.5238 38.6833 44.3968 37.6867 49.0586C37.4858 49.7425 37.2245 50.9221 36.8053 51.4864C36.3162 52.145 36.16 52.5938 35.7841 53.2843C35.1925 54.3787 34.3223 55.2967 33.2622 55.9451C31.6464 56.9423 29.6994 57.2487 27.8564 56.7951C26.0263 56.3496 24.4478 55.1932 23.4686 53.5808C22.7293 52.3539 21.9862 50.9774 21.2719 49.7175L17.288 42.6889L7.7168 25.8179L2.88501 17.2998L1.49133 14.8464C1.12994 14.2096 0.73345 13.5607 0.469573 12.8782C-0.0525104 11.5108 -0.141665 10.0154 0.214237 8.59547C0.670021 6.7647 1.83204 5.19009 3.44514 4.21742C5.07584 3.23458 7.03139 2.94753 8.87476 3.42041C10.3416 3.79494 11.6507 4.62916 12.6115 5.80154C13.0669 6.3558 13.3497 6.8916 13.7014 7.51201L14.6826 9.24508L18.0029 15.0978L27.1286 31.1869L30.1038 36.4327C30.6654 37.423 31.2365 38.4645 31.8164 39.4403C32.0311 33.1799 30.675 23.5501 28.1637 17.8146C27.2121 15.6411 25.4091 13.8768 24.9582 11.4593C24.6066 9.58355 25.0161 7.64469 26.0957 6.07256C27.0459 4.69172 28.453 3.69244 30.0678 3.25162C30.557 3.11779 30.9134 3.08982 31.3957 3Z" fill="url(#paint0_linear_157_70)"/>
<path d="M86.84 50.72C83.36 50.72 80.34 50.08 77.78 48.8C75.26 47.52 73.42 45.64 72.26 43.16L80 40.34C80.44 41.58 81.28 42.52 82.52 43.16C83.8 43.76 85.3 44.06 87.02 44.06C88.5 44.06 89.8 43.84 90.92 43.4C92.08 42.92 92.66 42.22 92.66 41.3C92.66 40.66 92.32 40.12 91.64 39.68C90.96 39.24 89.76 38.88 88.04 38.6L82.7 37.7C79.82 37.22 77.48 36.24 75.68 34.76C73.88 33.28 72.98 31.3 72.98 28.82C72.98 26.74 73.6 25 74.84 23.6C76.12 22.2 77.8 21.16 79.88 20.48C81.96 19.76 84.22 19.4 86.66 19.4C89.5 19.4 92.12 19.92 94.52 20.96C96.96 21.96 98.74 23.64 99.86 26L92.18 28.82C91.9 27.74 91.24 27.02 90.2 26.66C89.16 26.26 87.96 26.06 86.6 26.06C83.32 26.06 81.68 26.86 81.68 28.46C81.68 29.06 81.96 29.56 82.52 29.96C83.08 30.32 84.02 30.62 85.34 30.86L90.86 31.88C94.46 32.52 97.12 33.46 98.84 34.7C100.56 35.94 101.42 37.8 101.42 40.28C101.42 42.6 100.76 44.54 99.44 46.1C98.12 47.66 96.36 48.82 94.16 49.58C91.96 50.34 89.52 50.72 86.84 50.72ZM116.791 50C114.351 50 112.411 49.8 110.971 49.4C109.531 48.96 108.491 48.14 107.851 46.94C107.251 45.7 106.951 43.92 106.951 41.6V27.2H102.031V20.24H106.951V12.8H116.071V20.24H122.551V27.2H116.071V39.2C116.071 40.6 116.331 41.52 116.851 41.96C117.411 42.36 118.431 42.56 119.911 42.56H122.551V50H116.791ZM135.505 50.72C132.865 50.72 130.785 50.24 129.265 49.28C127.785 48.28 126.725 46.84 126.085 44.96C125.485 43.08 125.185 40.8 125.185 38.12V20.24H134.305V36.86C134.305 39.58 134.705 41.4 135.505 42.32C136.345 43.2 137.505 43.64 138.985 43.64C140.785 43.64 142.085 43.04 142.885 41.84C143.725 40.64 144.145 38.66 144.145 35.9V20.24H153.325V50H145.405L144.145 45.8C143.265 47.28 142.165 48.48 140.845 49.4C139.565 50.28 137.785 50.72 135.505 50.72ZM169.184 50.72C166.624 50.72 164.344 50.08 162.344 48.8C160.384 47.52 158.844 45.7 157.724 43.34C156.604 40.94 156.044 38.12 156.044 34.88C156.044 31.64 156.604 28.88 157.724 26.6C158.844 24.28 160.384 22.5 162.344 21.26C164.344 20.02 166.624 19.4 169.184 19.4C170.824 19.4 172.504 19.82 174.224 20.66C175.944 21.46 177.284 22.68 178.244 24.32V9.92H187.364V38.36C187.364 39.84 187.424 41.6 187.544 43.64C187.704 45.68 187.984 47.8 188.384 50H179.684L178.484 45.98C177.244 47.7 175.784 48.92 174.104 49.64C172.464 50.36 170.824 50.72 169.184 50.72ZM172.124 43.64C173.884 43.64 175.404 42.98 176.684 41.66C178.004 40.34 178.664 38.14 178.664 35.06C178.664 32.02 178.004 29.84 176.684 28.52C175.404 27.16 173.884 26.48 172.124 26.48C170.324 26.48 168.764 27.2 167.444 28.64C166.164 30.08 165.524 32.16 165.524 34.88C165.524 37.64 166.164 39.8 167.444 41.36C168.764 42.88 170.324 43.64 172.124 43.64ZM200.246 15.32C198.766 15.32 197.486 14.8 196.406 13.76C195.366 12.68 194.846 11.4 194.846 9.92C194.846 8.4 195.366 7.12 196.406 6.08C197.486 5.04 198.766 4.52 200.246 4.52C201.766 4.52 203.046 5.04 204.086 6.08C205.126 7.12 205.646 8.4 205.646 9.92C205.646 11.4 205.126 12.68 204.086 13.76C203.046 14.8 201.766 15.32 200.246 15.32ZM195.626 50V27.2H189.986V20.24H204.806V50H195.626ZM222.892 50.72C220.132 50.72 217.552 50.16 215.152 49.04C212.752 47.92 210.812 46.2 209.332 43.88C207.852 41.52 207.112 38.56 207.112 35C207.112 31.4 207.852 28.46 209.332 26.18C210.812 23.86 212.752 22.16 215.152 21.08C217.552 19.96 220.132 19.4 222.892 19.4C225.612 19.4 228.172 19.96 230.572 21.08C232.972 22.16 234.912 23.86 236.392 26.18C237.872 28.46 238.612 31.4 238.612 35C238.612 38.56 237.872 41.52 236.392 43.88C234.912 46.2 232.972 47.92 230.572 49.04C228.172 50.16 225.612 50.72 222.892 50.72ZM222.892 43.64C224.732 43.64 226.252 42.98 227.452 41.66C228.692 40.34 229.312 38.12 229.312 35C229.312 31.84 228.672 29.64 227.392 28.4C226.152 27.12 224.652 26.48 222.892 26.48C221.092 26.48 219.552 27.12 218.272 28.4C217.032 29.64 216.412 31.84 216.412 35C216.412 38.12 217.032 40.34 218.272 41.66C219.512 42.98 221.052 43.64 222.892 43.64Z" fill="#131415"/>
<defs>
<linearGradient id="paint0_linear_157_70" x1="30.5" y1="3" x2="30.5" y2="57" gradientUnits="userSpaceOnUse">
<stop stop-color="#6CC7E5"/>
<stop offset="1" stop-color="#0058A7"/>
</linearGradient>
</defs>
</svg>
